<svg xmlns="http://www.w3.org/2000/svg" id="Layer_1" data-name="Layer 1" viewBox="0 0 179 55"><defs><style> .cls-1 { fill: #4460ef; } .cls-1, .cls-2 { stroke-width: 0px; } .cls-2 { fill: navy; } </style></defs><g><path class="cls-2" d="M68.59,32.56c0,3.93-1.62,5.36-6.04,5.36h-13.1c.05-1.21.16-2.42.24-3.64h12.61c1.97,0,2.53-.46,2.53-2.05s-.54-2.05-2.45-2.05h-7.52c-4.45,0-5.87-1.59-5.87-4.99v-.62c0-3.69,1.48-5.2,5.98-5.2h12.99c-.13,1.24-.3,2.45-.46,3.69h-12.53c-1.78,0-2.29.57-2.29,2.02s.51,2.05,2.29,2.05h7.41c4.61,0,6.2,1.51,6.2,4.77v.65Z"></path><path class="cls-2" d="M70.77,37.92v-18.54h17.81v3.66h-14.17v4.1h13.77v2.99h-13.77v4.15h14.17v3.64h-17.81Z"></path><path class="cls-2" d="M90.9,37.92v-18.54h17.81v3.66h-14.17v4.1h13.77v2.99h-13.77v4.15h14.17v3.64h-17.81Z"></path><path class="cls-2" d="M111.02,37.92v-18.54h3.64v14.87h13.96v3.67h-17.6Z"></path><path class="cls-2" d="M135.97,37.92c-4.5,0-5.79-1.46-5.79-6.01v-6.52c0-4.55,1.29-6.01,5.79-6.01h9.78c4.42,0,5.79,1.46,5.79,6.01v6.52c0,4.55-1.37,6.01-5.79,6.01h-9.78ZM147.91,25.42c0-1.83-.57-2.37-2.18-2.37h-9.75c-1.62,0-2.18.54-2.18,2.37v6.52c0,1.83.51,2.34,2.18,2.34h9.75c1.67,0,2.18-.51,2.18-2.34v-6.52Z"></path><path class="cls-2" d="M153.76,37.92v-3.31l13.12-11.78h-12.96v-3.45h18.7v3.21l-13.1,11.88h13.12v3.45h-18.89Z"></path></g><g><path class="cls-1" d="M14.74,40.7c.51.22.96.4,1.4.6,1.54.67,3.13.85,4.8.7,1.32-.12,2.58-.41,3.72-1.03,2.2-1.18,3.82-2.91,4.62-5.33.39-1.2.44-2.47.25-3.67-.27-1.66-.93-3.23-2.15-4.46-2.98-3-5.99-5.97-9-8.95-.37-.37-.78-.69-1.16-1.04-.09-.08-.13-.21-.23-.39h17.83c-.17.23-.27.41-.41.54-.94.87-1.88,1.73-2.83,2.58-.49.44-.48.61.03,1.06.75.68,1.53,1.34,2.2,2.09,1.25,1.39,2.11,3.01,2.66,4.82.47,1.54.56,3.1.36,4.65-.31,2.39-1.32,4.51-2.92,6.34-1.62,1.87-3.64,3.1-5.97,3.94-2.16.78-4.36.8-6.55.61-1.61-.14-3.19-.68-4.62-1.52-.57-.34-1.15-.67-1.71-1.04-.13-.08-.19-.27-.34-.52Z"></path><path class="cls-2" d="M25.01,36.7H7.27c1.35-1.25,2.6-2.42,3.92-3.64-.71-.63-1.43-1.17-2.03-1.83-.75-.82-1.47-1.69-2.07-2.63-.56-.88-.97-1.86-1.36-2.83-.19-.47-.21-1.01-.28-1.52-.09-.67-.28-1.36-.21-2.01.19-1.89.58-3.7,1.53-5.41.78-1.4,1.76-2.59,2.95-3.58.85-.71,1.82-1.31,2.81-1.79,1.03-.5,2.12-.96,3.24-1.15,1.41-.24,2.88-.35,4.31-.24,1.3.11,2.61.48,3.84.93,1.09.4,2.07,1.07,3.11,1.62-.03.07-.06.14-.09.21-.13-.03-.27-.03-.39-.09-.9-.41-1.8-.81-2.82-.86-.61-.03-1.23-.25-1.83-.21-1.81.14-3.54.54-5.12,1.52-1.18.73-2.18,1.62-2.92,2.75-.49.74-.74,1.64-1.07,2.48-.48,1.21-.34,2.49-.19,3.7.16,1.27.72,2.46,1.54,3.5,2.01,2.55,4.47,4.66,6.76,6.92,1.38,1.36,2.8,2.67,4.21,4-.03.04-.05.09-.08.13Z"></path></g></svg>